PathFileType	4	(X/Y/Z)	./resultDataOpenSim/trcMotMarkerGrf/sub10/qtm-14-02.trc
DataRate	CameraRate	NumFrames	NumMarkers	Units	OrigDataRate	OrigDataStartFrame	OrigNumFrames
250.000000	250.000000	12	24	m	250.000000	368	490
Frame#	Time	L.Toe.Tip			R.Toe.Tip			L.Ankle.Lat			R.Ankle.Lat			L.Ankle.Med			R.Ankle.Med			L.Heel			R.Heel			L.Knee.Lat			R.Knee.Lat			L.Knee.Med			R.Knee.Med			L.Thigh.Upper			R.Thigh.Upper			L.ASIS			R.ASIS			V.Sacral			L.Acromium			R.Acromium			C7			L.Elbow			R.Elbow			L.Wrist.Lat			R.Wrist.Lat
		X1	Y1	Z1	X2	Y2	Z2	X3	Y3	Z3	X4	Y4	Z4	X5	Y5	Z5	X6	Y6	Z6	X7	Y7	Z7	X8	Y8	Z8	X9	Y9	Z9	X10	Y10	Z10	X11	Y11	Z11	X12	Y12	Z12	X13	Y13	Z13	X14	Y14	Z14	X15	Y15	Z15	X16	Y16	Z16	X17	Y17	Z17	X18	Y18	Z18	X19	Y19	Z19	X20	Y20	Z20	X21	Y21	Z21	X22	Y22	Z22	X23	Y23	Z23	X24	Y24	Z24

368	1.468	0.98300757	0.070759908	-0.22152017	0.92933434	0.038407238	0.0097897509	0.88523654	0.1650369	-0.24010792	0.78694293	0.059411392	0.049165049	0.90869235	0.17306112	-0.15675778	0.81001651	0.084831677	-0.03464097	0.81438418	0.16324289	-0.19406007	0.73578317	0.038132662	0.0032128003	1.0802413	0.49010553	-0.23286966	0.89746994	0.44586499	0.080321212	1.1033084	0.4614844	-0.11554402	0.91399839	0.45023721	-0.046333532	0.92406516	0.83584019	-0.24889944	0.88816647	0.86434818	0.13364606	0.97538629	0.94415391	-0.17593622	0.96514378	0.95358643	0.067927383	0.77418353	0.96887562	-0.069022114	0.96240532	1.4218591	-0.19368703	0.90415143	1.4137569	0.12141565	0.85578457	1.4524329	-0.052331339	0.85437414	1.1096373	-0.32606821	0.8035822	1.0718935	0.17394091	1.0273846	0.92810564	-0.32447887	0.96656127	0.92577326	0.29421427
369	1.472	1.0016639	0.069237886	-0.22284916	0.92930053	0.038420022	0.0097564385	0.90114715	0.1604288	-0.24157954	0.78685851	0.059548779	0.048735425	0.92502887	0.16905182	-0.15838015	0.81023624	0.084923038	-0.034986939	0.83029678	0.15659486	-0.19544025	0.73606271	0.038105461	0.0029412444	1.0878816	0.49112476	-0.23336491	0.89767464	0.44606473	0.080134711	1.11088	0.46268276	-0.11607406	0.91465234	0.45021317	-0.04651582	0.93070781	0.83668279	-0.24938782	0.89119233	0.86463638	0.13297055	0.98122797	0.94468557	-0.17594916	0.96906625	0.95380723	0.067798556	0.77906843	0.96909376	-0.070448952	0.96715186	1.4219504	-0.19406642	0.90880598	1.4137062	0.12121975	0.86041258	1.4527388	-0.052609229	0.85533881	1.1106315	-0.32538931	0.81026726	1.0707287	0.17379424	1.0258029	0.92696465	-0.32546088	0.97779181	0.9260642	0.28992452
370	1.476	1.0203762	0.067814811	-0.22410325	0.92922867	0.038437274	0.0097392907	0.91720113	0.15579482	-0.2430174	0.78677528	0.059677236	0.048284421	0.94142245	0.16499179	-0.16012099	0.81053428	0.085013143	-0.035318549	0.84651384	0.14991336	-0.19673005	0.73620588	0.038087311	0.0024955046	1.0956002	0.4919865	-0.2338442	0.89787716	0.44626766	0.079924374	1.1186036	0.46368669	-0.116579	0.91529855	0.45017456	-0.046710047	0.93742902	0.83744486	-0.24981876	0.89410237	0.86485866	0.13229691	0.9871481	0.94515133	-0.17597626	0.97298492	0.95400677	0.067659136	0.78397246	0.9692509	-0.071879807	0.97189873	1.421975	-0.19444634	0.91347336	1.4136244	0.12101048	0.86504431	1.4529538	-0.052900294	0.85636314	1.1116197	-0.32473518	0.81691183	1.0695375	0.17379232	1.0241953	0.92586125	-0.32646427	0.98894532	0.92640404	0.28559541
371	1.48	1.0391424	0.066509207	-0.22526914	0.92915873	0.038467766	0.0097317446	0.93341307	0.15116463	-0.2444117	0.78669392	0.059799831	0.047813033	0.95742037	0.16092539	-0.16177089	0.81069573	0.085095711	-0.035723697	0.86301537	0.14320503	-0.19806509	0.73620064	0.038104325	0.0018886894	1.1034057	0.49270343	-0.23430384	0.89807291	0.4464621	0.079680725	1.1265385	0.46447315	-0.11706138	0.91595796	0.4501195	-0.046917098	0.94433138	0.83812881	-0.25012079	0.89699636	0.86506288	0.1316321	0.99308815	0.9455471	-0.17600255	0.97690268	0.95418693	0.067512911	0.78890095	0.96934176	-0.073308421	0.97663593	1.4219606	-0.19483177	0.91815747	1.4135156	0.12078846	0.86973435	1.4530502	-0.053231397	0.85745555	1.1126058	-0.32410695	0.8234906	1.068351	0.17397282	1.0226811	0.92477175	-0.32744945	1.0000176	0.9267935	0.28122563
372	1.484	1.0579549	0.065334728	-0.22633129	0.92915771	0.038526102	0.0097213122	0.9497813	0.14656076	-0.24575934	0.78660194	0.059924943	0.047339584	0.97296027	0.156879	-0.16322657	0.81061567	0.085158739	-0.036242297	0.87977916	0.13646364	-0.19951819	0.73612641	0.038147627	0.0012238948	1.1111515	0.49327788	-0.23475921	0.89825983	0.44664018	0.079400858	1.1344122	0.46505965	-0.1175465	0.91661501	0.45005256	-0.047153538	0.95135524	0.83873693	-0.25033672	0.8999642	0.86529494	0.130982	0.9989905	0.9458677	-0.17600844	0.98082289	0.95434827	0.067364118	0.79385078	0.96935507	-0.074752767	0.98135651	1.4219216	-0.1952245	0.92286241	1.4133789	0.12055424	0.87450346	1.4530238	-0.053612964	0.85862578	1.1135957	-0.32350304	0.8301347	1.0672086	0.17423541	1.0213471	0.92369071	-0.32839198	1.011008	0.92724016	0.27681521
373	1.488	1.0768069	0.064305912	-0.22728509	0.92924091	0.038608689	0.0097015928	0.96628923	0.14199482	-0.2470657	0.78649437	0.060052303	0.04687748	0.98828079	0.15285374	-0.16453003	0.81045698	0.085200254	-0.036798384	0.89676309	0.12970095	-0.20108992	0.73605413	0.038211519	0.0005994285	1.118644	0.49370222	-0.23523137	0.8984381	0.44680591	0.079096226	1.1418547	0.46548944	-0.11805744	0.91719317	0.44998332	-0.047454744	0.95816998	0.83927343	-0.25068817	0.90298837	0.86554146	0.13033205	1.0048493	0.946113	-0.17599182	0.98474508	0.95449107	0.067215438	0.79881959	0.96928148	-0.076268398	0.98605573	1.4218526	-0.19562244	0.92758871	1.4132136	0.12030484	0.8793433	1.4528829	-0.054040928	0.85987501	1.114594	-0.3229383	0.83700026	1.0661167	0.1744562	1.0202198	0.9226297	-0.32930695	1.0219032	0.9277542	0.27236401
374	1.492	1.0956933	0.063437503	-0.22814096	0.92933399	0.038681602	0.0096703745	0.98292179	0.13747898	-0.24834073	0.78637983	0.060174673	0.046422859	1.003934	0.14894186	-0.16577853	0.8103946	0.085230869	-0.037303515	0.91385632	0.12297911	-0.20274449	0.73597386	0.038313474	3.9811193e-05	1.1258062	0.49397472	-0.2357272	0.89861019	0.44696754	0.078787816	1.1487676	0.46578128	-0.11859679	0.91757656	0.4499249	-0.047861371	0.96453343	0.8397384	-0.25132339	0.90601579	0.8657606	0.12965	1.0107244	0.94629106	-0.17597383	0.98866536	0.95461366	0.067066486	0.8038105	0.96910047	-0.077935477	0.99073718	1.4217368	-0.19601745	0.93233499	1.41302	0.12003413	0.88419619	1.4526648	-0.054472374	0.86119362	1.1156022	-0.32243983	0.84412312	1.0650457	0.17463809	1.0192756	0.92160312	-0.33023106	1.0326883	0.92833453	0.26787549
375	1.496	1.1146008	0.06273304	-0.22891324	0.92936012	0.03871733	0.0096259209	0.99967123	0.13303564	-0.24958805	0.78626469	0.060289988	0.045972258	1.020772	0.14537734	-0.16707394	0.81043285	0.085262361	-0.037738071	0.93097214	0.11639007	-0.20440596	0.73582498	0.038473868	-0.00050664796	1.1326631	0.49410407	-0.23624336	0.8987792	0.44712737	0.078489082	1.1553153	0.46592095	-0.11916072	0.91776209	0.4498797	-0.048357899	0.97062704	0.84011549	-0.25209407	0.90906492	0.86593984	0.12891884	1.0166907	0.94641072	-0.17597949	0.99258073	0.95471044	0.06691589	0.80882561	0.96879272	-0.079793592	0.99541476	1.4215549	-0.19639723	0.9371012	1.4127947	0.11973643	0.88897267	1.4524302	-0.054839876	0.86257422	1.1166168	-0.32201104	0.85144057	1.0639443	0.17487851	1.0184213	0.92061398	-0.3311757	1.0433628	0.92896452	0.26336062
376	1.5	1.1335045	0.0621742	-0.22960679	0.92932088	0.038722348	0.0095731365	1.016526	0.12869713	-0.25079749	0.78614125	0.060402332	0.045535832	1.0389965	0.14227125	-0.16846666	0.81051635	0.085300844	-0.038120304	0.94815209	0.10999436	-0.20598734	0.73558865	0.038661953	-0.0011181101	1.139253	0.49408496	-0.23678361	0.89894724	0.44728312	0.078196958	1.1616655	0.46588585	-0.11975439	0.91799835	0.44982573	-0.048816565	0.97679511	0.8403826	-0.25275336	0.91220648	0.86609446	0.12818533	1.0227479	0.94647674	-0.17601077	0.99648951	0.95477742	0.066762113	0.81386066	0.96840208	-0.081746561	1.0000991	1.4212941	-0.19675489	0.94188757	1.412535	0.1194112	0.893634	1.4522091	-0.055113608	0.86401868	1.1176266	-0.32161811	0.85883633	1.0627806	0.17518756	1.0175311	0.91965239	-0.3321158	1.0539269	0.92962218	0.2588392
377	1.504	1.1523775	0.061727915	-0.23021811	0.92925944	0.038716271	0.0095222769	1.0334729	0.12448972	-0.2519571	0.78599925	0.060510681	0.045120116	1.0574943	0.13933927	-0.16986834	0.81062825	0.08534777	-0.038469877	0.96548615	0.10381283	-0.20744957	0.73532715	0.038785893	-0.0018243815	1.1456375	0.49388862	-0.23736758	0.89911818	0.44743415	0.077903364	1.1678738	0.46565793	-0.12038705	0.91857413	0.44973924	-0.049095177	0.98317524	0.84054265	-0.25323536	0.91544193	0.86621028	0.12753947	1.0287643	0.94648721	-0.17603271	1.0003904	0.95481828	0.066603266	0.81892911	0.96804452	-0.083537757	1.0047843	1.4209578	-0.1970962	0.94668879	1.4122446	0.11906572	0.89824532	1.4519706	-0.055335227	0.86552918	1.1186162	-0.32122666	0.86612157	1.0616067	0.17538869	1.0165393	0.91870683	-0.33302257	1.0643609	0.93029407	0.25433789
378	1.508	1.1712009	0.061367235	-0.23074778	0.9291988	0.038709808	0.0094796171	1.0505194	0.12041717	-0.25306856	0.7858404	0.060608476	0.044712549	1.0747183	0.13609726	-0.17109632	0.81076393	0.085396876	-0.038804024	0.98300412	0.097866918	-0.20879894	0.73512071	0.038794292	-0.0025628483	1.1519037	0.49349098	-0.23801663	0.89930242	0.44758076	0.077612116	1.1739376	0.46522982	-0.12106395	0.9194699	0.44962348	-0.049198956	0.9897179	0.84062704	-0.25364202	0.9187389	0.86625399	0.12697708	1.034598	0.94643461	-0.17600936	1.0042863	0.95483698	0.066439415	0.82410575	0.96781139	-0.084857312	1.009452	1.4205655	-0.19743751	0.95149576	1.4119307	0.11871027	0.90291769	1.4516526	-0.055582218	0.8671014	1.1195743	-0.32083979	0.87314334	1.0605258	0.17528014	1.015439	0.91777029	-0.33387683	1.0746336	0.93098874	0.24986765
379	1.512	1.1899639	0.061083197	-0.23120262	0.92913016	0.03870373	0.0094422596	1.0676905	0.11647253	-0.25414246	0.785675	0.060693516	0.044298397	1.0900256	0.13233886	-0.17206082	0.81089687	0.085434196	-0.039137181	1.0006847	0.092188497	-0.21004911	0.73499422	0.038742207	-0.0032337743	1.1581037	0.49289068	-0.23872752	0.89951742	0.4477202	0.077338254	1.1798517	0.46460485	-0.12178626	0.92042917	0.44949327	-0.04925405	0.99634325	0.84065662	-0.25407711	0.92212876	0.86623583	0.12636917	1.0402806	0.94631607	-0.17595385	1.0081889	0.95482862	0.066271531	0.82947546	0.9676744	-0.085598012	1.0140879	1.4201356	-0.19779685	0.95631672	1.4115906	0.11834501	0.90769587	1.4512191	-0.055896356	0.86872717	1.1204954	-0.32048572	0.87995762	1.059566	0.17488823	1.0142437	0.91684114	-0.33467114	1.0847507	0.93173254	0.24538829
